<?xml version="1.0" standalone="no"?>
<!DOCTYPE svg PUBLIC "-//W3C//DTD SVG 20010904//EN"
 "http://www.w3.org/TR/2001/REC-SVG-20010904/DTD/svg10.dtd">
<svg version="1.0" xmlns="http://www.w3.org/2000/svg"
 width="316.000000pt" height="316.000000pt" viewBox="0 0 316.000000 316.000000"
 preserveAspectRatio="xMidYMid meet">
<metadata>
Created by potrace 1.14, written by Peter Selinger 2001-2017
</metadata>
<g transform="translate(0.000000,316.000000) scale(0.100000,-0.100000)"
fill="#000000" stroke="none">
<path d="M1370 3145 c-682 -94 -1223 -613 -1346 -1290 -25 -138 -25 -412 0
-550 118 -650 631 -1164 1281 -1281 139 -25 413 -25 550 0 652 119 1163 630
1281 1281 25 138 25 412 0 550 -111 611 -567 1102 -1168 1256 -186 47 -409 60
-598 34z m741 -544 c27 -28 29 -35 29 -108 0 -43 3 -95 6 -116 l7 -38 183 7
184 7 0 -54 c0 -30 9 -376 20 -769 11 -393 20 -718 20 -722 0 -3 -28 -9 -62
-12 -109 -10 -1788 -49 -1795 -42 -8 7 -49 1534 -41 1541 2 3 85 8 184 13
l179 7 5 120 c3 66 9 126 14 134 5 7 24 19 43 27 30 13 38 13 67 -1 47 -22 56
-51 56 -172 l0 -105 328 6 c180 4 348 9 375 12 l47 6 0 115 c0 113 0 115 29
144 20 20 39 29 61 29 22 0 41 -9 61 -29z"/>
<path d="M1516 2129 c-363 -11 -661 -21 -663 -23 -6 -5 27 -1149 33 -1155 6
-7 1424 31 1453 39 23 6 25 11 23 61 -1 30 -7 289 -14 577 l-12 522 -80 -1
c-45 -1 -378 -10 -740 -20z m412 -362 l53 -54 -35 -42 c-57 -68 -390 -431
-396 -431 -3 0 -76 71 -162 158 l-157 157 54 60 54 60 103 -103 104 -103 158
176 c88 96 162 175 165 175 4 0 30 -24 59 -53z"/>
</g>
</svg>
